<svg width="207" height="49" viewBox="0 0 207 49" fill="none" xmlns="http://www.w3.org/2000/svg">
<path opacity="0.8" d="M3.08672 43.31H6.69672V44.17H3.08672V43.31ZM3.18672 47H2.18672V40H7.12672V40.87H3.18672V47ZM13.1163 47.08C12.5829 47.08 12.0863 46.99 11.6263 46.81C11.1729 46.63 10.7796 46.38 10.4463 46.06C10.1129 45.7333 9.85292 45.3533 9.66625 44.92C9.47958 44.4867 9.38625 44.0133 9.38625 43.5C9.38625 42.9867 9.47958 42.5133 9.66625 42.08C9.85292 41.6467 10.1129 41.27 10.4463 40.95C10.7796 40.6233 11.1729 40.37 11.6263 40.19C12.0796 40.01 12.5763 39.92 13.1163 39.92C13.6496 39.92 14.1396 40.01 14.5863 40.19C15.0396 40.3633 15.4329 40.6133 15.7663 40.94C16.1063 41.26 16.3663 41.6367 16.5463 42.07C16.7329 42.5033 16.8263 42.98 16.8263 43.5C16.8263 44.02 16.7329 44.4967 16.5463 44.93C16.3663 45.3633 16.1063 45.7433 15.7663 46.07C15.4329 46.39 15.0396 46.64 14.5863 46.82C14.1396 46.9933 13.6496 47.08 13.1163 47.08ZM13.1163 46.19C13.5029 46.19 13.8596 46.1233 14.1862 45.99C14.5196 45.8567 14.8063 45.67 15.0463 45.43C15.2929 45.1833 15.4829 44.8967 15.6163 44.57C15.7563 44.2433 15.8263 43.8867 15.8263 43.5C15.8263 43.1133 15.7563 42.7567 15.6163 42.43C15.4829 42.1033 15.2929 41.82 15.0463 41.58C14.8063 41.3333 14.5196 41.1433 14.1862 41.01C13.8596 40.8767 13.5029 40.81 13.1163 40.81C12.7229 40.81 12.3596 40.8767 12.0263 41.01C11.6996 41.1433 11.4129 41.3333 11.1663 41.58C10.9196 41.82 10.7263 42.1033 10.5863 42.43C10.4529 42.7567 10.3863 43.1133 10.3863 43.5C10.3863 43.8867 10.4529 44.2433 10.5863 44.57C10.7263 44.8967 10.9196 45.1833 11.1663 45.43C11.4129 45.67 11.6996 45.8567 12.0263 45.99C12.3596 46.1233 12.7229 46.19 13.1163 46.19ZM19.8547 47V40H22.5847C23.198 40 23.7214 40.0967 24.1547 40.29C24.588 40.4833 24.9214 40.7633 25.1547 41.13C25.388 41.4967 25.5047 41.9333 25.5047 42.44C25.5047 42.9467 25.388 43.3833 25.1547 43.75C24.9214 44.11 24.588 44.3867 24.1547 44.58C23.7214 44.7733 23.198 44.87 22.5847 44.87H20.4047L20.8547 44.41V47H19.8547ZM24.5347 47L22.7547 44.46H23.8247L25.6247 47H24.5347ZM20.8547 44.51L20.4047 44.02H22.5547C23.1947 44.02 23.678 43.8833 24.0047 43.61C24.338 43.33 24.5047 42.94 24.5047 42.44C24.5047 41.94 24.338 41.5533 24.0047 41.28C23.678 41.0067 23.1947 40.87 22.5547 40.87H20.4047L20.8547 40.37V44.51ZM37.8259 40H38.8259V47H37.8259V40ZM33.8059 47H32.8059V40H33.8059V47ZM37.9159 43.88H33.7059V43.01H37.9159V43.88ZM45.5811 47.08C45.0478 47.08 44.5511 46.99 44.0911 46.81C43.6378 46.63 43.2444 46.38 42.9111 46.06C42.5778 45.7333 42.3178 45.3533 42.1311 44.92C41.9444 44.4867 41.8511 44.0133 41.8511 43.5C41.8511 42.9867 41.9444 42.5133 42.1311 42.08C42.3178 41.6467 42.5778 41.27 42.9111 40.95C43.2444 40.6233 43.6378 40.37 44.0911 40.19C44.5444 40.01 45.0411 39.92 45.5811 39.92C46.1144 39.92 46.6044 40.01 47.0511 40.19C47.5044 40.3633 47.8978 40.6133 48.2311 40.94C48.5711 41.26 48.8311 41.6367 49.0111 42.07C49.1978 42.5033 49.2911 42.98 49.2911 43.5C49.2911 44.02 49.1978 44.4967 49.0111 44.93C48.8311 45.3633 48.5711 45.7433 48.2311 46.07C47.8978 46.39 47.5044 46.64 47.0511 46.82C46.6044 46.9933 46.1144 47.08 45.5811 47.08ZM45.5811 46.19C45.9678 46.19 46.3244 46.1233 46.6511 45.99C46.9844 45.8567 47.2711 45.67 47.5111 45.43C47.7578 45.1833 47.9478 44.8967 48.0811 44.57C48.2211 44.2433 48.2911 43.8867 48.2911 43.5C48.2911 43.1133 48.2211 42.7567 48.0811 42.43C47.9478 42.1033 47.7578 41.82 47.5111 41.58C47.2711 41.3333 46.9844 41.1433 46.6511 41.01C46.3244 40.8767 45.9678 40.81 45.5811 40.81C45.1878 40.81 44.8244 40.8767 44.4911 41.01C44.1644 41.1433 43.8778 41.3333 43.6311 41.58C43.3844 41.82 43.1911 42.1033 43.0511 42.43C42.9178 42.7567 42.8511 43.1133 42.8511 43.5C42.8511 43.8867 42.9178 44.2433 43.0511 44.57C43.1911 44.8967 43.3844 45.1833 43.6311 45.43C43.8778 45.67 44.1644 45.8567 44.4911 45.99C44.8244 46.1233 45.1878 46.19 45.5811 46.19ZM52.3195 47V40H53.1395L56.2795 45.29H55.8395L58.9395 40H59.7595L59.7695 47H58.8095L58.7995 41.51H59.0295L56.2695 46.15H55.8095L53.0295 41.51H53.2795V47H52.3195ZM64.2803 43.02H67.8803V43.87H64.2803V43.02ZM64.3703 46.13H68.4503V47H63.3703V40H68.3103V40.87H64.3703V46.13ZM74.7198 47.08C74.1864 47.08 73.6898 46.99 73.2298 46.81C72.7764 46.63 72.3831 46.38 72.0498 46.06C71.7164 45.7333 71.4564 45.3533 71.2698 44.92C71.0831 44.4867 70.9898 44.0133 70.9898 43.5C70.9898 42.9867 71.0831 42.5133 71.2698 42.08C71.4564 41.6467 71.7164 41.27 72.0498 40.95C72.3831 40.6233 72.7764 40.37 73.2298 40.19C73.6831 40.01 74.1798 39.92 74.7198 39.92C75.2531 39.92 75.7431 40.01 76.1898 40.19C76.6431 40.3633 77.0364 40.6133 77.3698 40.94C77.7098 41.26 77.9698 41.6367 78.1498 42.07C78.3364 42.5033 78.4298 42.98 78.4298 43.5C78.4298 44.02 78.3364 44.4967 78.1498 44.93C77.9698 45.3633 77.7098 45.7433 77.3698 46.07C77.0364 46.39 76.6431 46.64 76.1898 46.82C75.7431 46.9933 75.2531 47.08 74.7198 47.08ZM74.7198 46.19C75.1064 46.19 75.4631 46.1233 75.7898 45.99C76.1231 45.8567 76.4098 45.67 76.6498 45.43C76.8964 45.1833 77.0864 44.8967 77.2198 44.57C77.3598 44.2433 77.4298 43.8867 77.4298 43.5C77.4298 43.1133 77.3598 42.7567 77.2198 42.43C77.0864 42.1033 76.8964 41.82 76.6498 41.58C76.4098 41.3333 76.1231 41.1433 75.7898 41.01C75.4631 40.8767 75.1064 40.81 74.7198 40.81C74.3264 40.81 73.9631 40.8767 73.6298 41.01C73.3031 41.1433 73.0164 41.3333 72.7698 41.58C72.5231 41.82 72.3298 42.1033 72.1898 42.43C72.0564 42.7567 71.9898 43.1133 71.9898 43.5C71.9898 43.8867 72.0564 44.2433 72.1898 44.57C72.3298 44.8967 72.5231 45.1833 72.7698 45.43C73.0164 45.67 73.3031 45.8567 73.6298 45.99C73.9631 46.1233 74.3264 46.19 74.7198 46.19ZM82.8534 47L80.5134 40H81.5434L83.6934 46.46H83.1734L85.4034 40H86.3234L88.5034 46.46H88.0034L90.1834 40H91.1334L88.7934 47H87.7434L85.7034 41.01H85.9734L83.9234 47H82.8534ZM93.8566 47V40H94.6766L99.3066 45.75H98.8766V40H99.8766V47H99.0566L94.4266 41.25H94.8566V47H93.8566ZM104.382 43.02H107.982V43.87H104.382V43.02ZM104.472 46.13H108.552V47H103.472V40H108.412V40.87H104.472V46.13ZM111.671 47V40H114.401C115.014 40 115.538 40.0967 115.971 40.29C116.404 40.4833 116.738 40.7633 116.971 41.13C117.204 41.4967 117.321 41.9333 117.321 42.44C117.321 42.9467 117.204 43.3833 116.971 43.75C116.738 44.11 116.404 44.3867 115.971 44.58C115.538 44.7733 115.014 44.87 114.401 44.87H112.221L112.671 44.41V47H111.671ZM116.351 47L114.571 44.46H115.641L117.441 47H116.351ZM112.671 44.51L112.221 44.02H114.371C115.011 44.02 115.494 43.8833 115.821 43.61C116.154 43.33 116.321 42.94 116.321 42.44C116.321 41.94 116.154 41.5533 115.821 41.28C115.494 41.0067 115.011 40.87 114.371 40.87H112.221L112.671 40.37V44.51ZM122.477 47.08C121.943 47.08 121.433 47 120.947 46.84C120.46 46.6733 120.077 46.46 119.797 46.2L120.167 45.42C120.433 45.6533 120.773 45.8467 121.187 46C121.6 46.1533 122.03 46.23 122.477 46.23C122.883 46.23 123.213 46.1833 123.467 46.09C123.72 45.9967 123.907 45.87 124.027 45.71C124.147 45.5433 124.207 45.3567 124.207 45.15C124.207 44.91 124.127 44.7167 123.967 44.57C123.813 44.4233 123.61 44.3067 123.357 44.22C123.11 44.1267 122.837 44.0467 122.537 43.98C122.237 43.9133 121.933 43.8367 121.627 43.75C121.327 43.6567 121.05 43.54 120.797 43.4C120.55 43.26 120.35 43.0733 120.197 42.84C120.043 42.6 119.967 42.2933 119.967 41.92C119.967 41.56 120.06 41.23 120.247 40.93C120.44 40.6233 120.733 40.38 121.127 40.2C121.527 40.0133 122.033 39.92 122.647 39.92C123.053 39.92 123.457 39.9733 123.857 40.08C124.257 40.1867 124.603 40.34 124.897 40.54L124.567 41.34C124.267 41.14 123.95 40.9967 123.617 40.91C123.283 40.8167 122.96 40.77 122.647 40.77C122.253 40.77 121.93 40.82 121.677 40.92C121.423 41.02 121.237 41.1533 121.117 41.32C121.003 41.4867 120.947 41.6733 120.947 41.88C120.947 42.1267 121.023 42.3233 121.177 42.47C121.337 42.6167 121.54 42.7333 121.787 42.82C122.04 42.9067 122.317 42.9867 122.617 43.06C122.917 43.1267 123.217 43.2033 123.517 43.29C123.823 43.3767 124.1 43.49 124.347 43.63C124.6 43.77 124.803 43.9567 124.957 44.19C125.11 44.4233 125.187 44.7233 125.187 45.09C125.187 45.4433 125.09 45.7733 124.897 46.08C124.703 46.38 124.403 46.6233 123.997 46.81C123.597 46.99 123.09 47.08 122.477 47.08Z" fill="white"/>
<path d="M17.0267 8H21.8867V29H17.0267V8ZM7.48672 29H2.62672V8H7.48672V29ZM17.3867 20.39H7.12672V16.28H17.3867V20.39ZM34.2052 29.24C32.4852 29.24 30.9552 28.88 29.6152 28.16C28.2952 27.44 27.2452 26.46 26.4652 25.22C25.7052 23.96 25.3252 22.53 25.3252 20.93C25.3252 19.31 25.7052 17.88 26.4652 16.64C27.2452 15.38 28.2952 14.4 29.6152 13.7C30.9552 12.98 32.4852 12.62 34.2052 12.62C35.9052 12.62 37.4252 12.98 38.7652 13.7C40.1052 14.4 41.1552 15.37 41.9152 16.61C42.6752 17.85 43.0552 19.29 43.0552 20.93C43.0552 22.53 42.6752 23.96 41.9152 25.22C41.1552 26.46 40.1052 27.44 38.7652 28.16C37.4252 28.88 35.9052 29.24 34.2052 29.24ZM34.2052 25.4C34.9852 25.4 35.6852 25.22 36.3052 24.86C36.9252 24.5 37.4152 23.99 37.7752 23.33C38.1352 22.65 38.3152 21.85 38.3152 20.93C38.3152 19.99 38.1352 19.19 37.7752 18.53C37.4152 17.87 36.9252 17.36 36.3052 17C35.6852 16.64 34.9852 16.46 34.2052 16.46C33.4252 16.46 32.7252 16.64 32.1052 17C31.4852 17.36 30.9852 17.87 30.6052 18.53C30.2452 19.19 30.0652 19.99 30.0652 20.93C30.0652 21.85 30.2452 22.65 30.6052 23.33C30.9852 23.99 31.4852 24.5 32.1052 24.86C32.7252 25.22 33.4252 25.4 34.2052 25.4ZM66.8534 12.62C68.1334 12.62 69.2634 12.88 70.2434 13.4C71.2434 13.9 72.0234 14.68 72.5834 15.74C73.1634 16.78 73.4534 18.12 73.4534 19.76V29H68.7734V20.48C68.7734 19.18 68.5034 18.22 67.9634 17.6C67.4234 16.98 66.6634 16.67 65.6834 16.67C65.0034 16.67 64.3934 16.83 63.8534 17.15C63.3134 17.45 62.8934 17.91 62.5934 18.53C62.2934 19.15 62.1434 19.94 62.1434 20.9V29H57.4634V20.48C57.4634 19.18 57.1934 18.22 56.6534 17.6C56.1334 16.98 55.3834 16.67 54.4034 16.67C53.7234 16.67 53.1134 16.83 52.5734 17.15C52.0334 17.45 51.6134 17.91 51.3134 18.53C51.0134 19.15 50.8634 19.94 50.8634 20.9V29H46.1834V12.86H50.6534V17.27L49.8134 15.98C50.3734 14.88 51.1634 14.05 52.1834 13.49C53.2234 12.91 54.4034 12.62 55.7234 12.62C57.2034 12.62 58.4934 13 59.5934 13.76C60.7134 14.5 61.4534 15.64 61.8134 17.18L60.1634 16.73C60.7034 15.47 61.5634 14.47 62.7434 13.73C63.9434 12.99 65.3134 12.62 66.8534 12.62ZM85.7755 29.24C83.9355 29.24 82.3155 28.88 80.9155 28.16C79.5355 27.44 78.4655 26.46 77.7055 25.22C76.9455 23.96 76.5655 22.53 76.5655 20.93C76.5655 19.31 76.9355 17.88 77.6755 16.64C78.4355 15.38 79.4655 14.4 80.7655 13.7C82.0655 12.98 83.5355 12.62 85.1755 12.62C86.7555 12.62 88.1755 12.96 89.4355 13.64C90.7155 14.3 91.7255 15.26 92.4655 16.52C93.2055 17.76 93.5755 19.25 93.5755 20.99C93.5755 21.17 93.5655 21.38 93.5455 21.62C93.5255 21.84 93.5055 22.05 93.4855 22.25H80.3755V19.52H91.0255L89.2255 20.33C89.2255 19.49 89.0555 18.76 88.7155 18.14C88.3755 17.52 87.9055 17.04 87.3055 16.7C86.7055 16.34 86.0055 16.16 85.2055 16.16C84.4055 16.16 83.6955 16.34 83.0755 16.7C82.4755 17.04 82.0055 17.53 81.6655 18.17C81.3255 18.79 81.1555 19.53 81.1555 20.39V21.11C81.1555 21.99 81.3455 22.77 81.7255 23.45C82.1255 24.11 82.6755 24.62 83.3755 24.98C84.0955 25.32 84.9355 25.49 85.8955 25.49C86.7555 25.49 87.5055 25.36 88.1455 25.1C88.8055 24.84 89.4055 24.45 89.9455 23.93L92.4355 26.63C91.6955 27.47 90.7655 28.12 89.6455 28.58C88.5255 29.02 87.2355 29.24 85.7755 29.24ZM97.0213 29V8H107.281C109.921 8 111.901 8.5 113.221 9.5C114.561 10.5 115.231 11.82 115.231 13.46C115.231 14.56 114.961 15.52 114.421 16.34C113.881 17.14 113.141 17.76 112.201 18.2C111.261 18.64 110.181 18.86 108.961 18.86L109.531 17.63C110.851 17.63 112.021 17.85 113.041 18.29C114.061 18.71 114.851 19.34 115.411 20.18C115.991 21.02 116.281 22.05 116.281 23.27C116.281 25.07 115.571 26.48 114.151 27.5C112.731 28.5 110.641 29 107.881 29H97.0213ZM101.851 25.34H107.521C108.781 25.34 109.731 25.14 110.371 24.74C111.031 24.32 111.361 23.66 111.361 22.76C111.361 21.88 111.031 21.23 110.371 20.81C109.731 20.37 108.781 20.15 107.521 20.15H101.491V16.61H106.681C107.861 16.61 108.761 16.41 109.381 16.01C110.021 15.59 110.341 14.96 110.341 14.12C110.341 13.3 110.021 12.69 109.381 12.29C108.761 11.87 107.861 11.66 106.681 11.66H101.851V25.34ZM126.441 29.24C125.101 29.24 123.901 28.98 122.841 28.46C121.801 27.94 120.991 27.15 120.411 26.09C119.831 25.01 119.541 23.64 119.541 21.98V12.86H124.221V21.29C124.221 22.63 124.501 23.62 125.061 24.26C125.641 24.88 126.451 25.19 127.491 25.19C128.211 25.19 128.851 25.04 129.411 24.74C129.971 24.42 130.411 23.94 130.731 23.3C131.051 22.64 131.211 21.82 131.211 20.84V12.86H135.891V29H131.451V24.56L132.261 25.85C131.721 26.97 130.921 27.82 129.861 28.4C128.821 28.96 127.681 29.24 126.441 29.24ZM147.156 29.24C145.636 29.24 144.266 28.9 143.046 28.22C141.826 27.52 140.856 26.55 140.136 25.31C139.436 24.07 139.086 22.61 139.086 20.93C139.086 19.23 139.436 17.76 140.136 16.52C140.856 15.28 141.826 14.32 143.046 13.64C144.266 12.96 145.636 12.62 147.156 12.62C148.516 12.62 149.706 12.92 150.726 13.52C151.746 14.12 152.536 15.03 153.096 16.25C153.656 17.47 153.936 19.03 153.936 20.93C153.936 22.81 153.666 24.37 153.126 25.61C152.586 26.83 151.806 27.74 150.786 28.34C149.786 28.94 148.576 29.24 147.156 29.24ZM147.966 25.4C148.726 25.4 149.416 25.22 150.036 24.86C150.656 24.5 151.146 23.99 151.506 23.33C151.886 22.65 152.076 21.85 152.076 20.93C152.076 19.99 151.886 19.19 151.506 18.53C151.146 17.87 150.656 17.36 150.036 17C149.416 16.64 148.726 16.46 147.966 16.46C147.186 16.46 146.486 16.64 145.866 17C145.246 17.36 144.746 17.87 144.366 18.53C144.006 19.19 143.826 19.99 143.826 20.93C143.826 21.85 144.006 22.65 144.366 23.33C144.746 23.99 145.246 24.5 145.866 24.86C146.486 25.22 147.186 25.4 147.966 25.4ZM152.196 29V25.7L152.286 20.9L151.986 16.13V6.74H156.666V29H152.196ZM167.928 29.24C166.408 29.24 165.038 28.9 163.818 28.22C162.598 27.52 161.628 26.55 160.908 25.31C160.208 24.07 159.858 22.61 159.858 20.93C159.858 19.23 160.208 17.76 160.908 16.52C161.628 15.28 162.598 14.32 163.818 13.64C165.038 12.96 166.408 12.62 167.928 12.62C169.288 12.62 170.478 12.92 171.498 13.52C172.518 14.12 173.308 15.03 173.868 16.25C174.428 17.47 174.708 19.03 174.708 20.93C174.708 22.81 174.438 24.37 173.898 25.61C173.358 26.83 172.578 27.74 171.558 28.34C170.558 28.94 169.348 29.24 167.928 29.24ZM168.738 25.4C169.498 25.4 170.188 25.22 170.808 24.86C171.428 24.5 171.918 23.99 172.278 23.33C172.658 22.65 172.848 21.85 172.848 20.93C172.848 19.99 172.658 19.19 172.278 18.53C171.918 17.87 171.428 17.36 170.808 17C170.188 16.64 169.498 16.46 168.738 16.46C167.958 16.46 167.258 16.64 166.638 17C166.018 17.36 165.518 17.87 165.138 18.53C164.778 19.19 164.598 19.99 164.598 20.93C164.598 21.85 164.778 22.65 165.138 23.33C165.518 23.99 166.018 24.5 166.638 24.86C167.258 25.22 167.958 25.4 168.738 25.4ZM172.968 29V25.7L173.058 20.9L172.758 16.13V6.74H177.438V29H172.968ZM183.809 35.06C182.969 35.06 182.139 34.93 181.319 34.67C180.499 34.41 179.829 34.05 179.309 33.59L181.019 30.26C181.379 30.58 181.789 30.83 182.249 31.01C182.729 31.19 183.199 31.28 183.659 31.28C184.319 31.28 184.839 31.12 185.219 30.8C185.619 30.5 185.979 29.99 186.299 29.27L187.139 27.29L187.499 26.78L193.289 12.86H197.789L190.499 29.99C189.979 31.29 189.379 32.31 188.699 33.05C188.039 33.79 187.299 34.31 186.479 34.61C185.679 34.91 184.789 35.06 183.809 35.06ZM186.569 29.63L179.369 12.86H184.199L189.779 26.36L186.569 29.63Z" fill="white"/>
<path d="M201.469 29.24C200.669 29.24 199.979 28.97 199.399 28.43C198.839 27.87 198.559 27.16 198.559 26.3C198.559 25.44 198.839 24.75 199.399 24.23C199.979 23.69 200.669 23.42 201.469 23.42C202.289 23.42 202.979 23.69 203.539 24.23C204.099 24.75 204.379 25.44 204.379 26.3C204.379 27.16 204.099 27.87 203.539 28.43C202.979 28.97 202.289 29.24 201.469 29.24Z" fill="#FA8C16"/>
</svg>
